<?xml version="1.0" standalone="no"?>
<!DOCTYPE svg PUBLIC "-//W3C//DTD SVG 1.0//EN" "http://www.w3.org/TR/2001/REC-SVG-20010904/DTD/svg10.dtd">
<svg xmlns="http://www.w3.org/2000/svg" xmlns:xlink="http://www.w3.org/1999/xlink" id="body_1" width="100" height="100">

<g transform="matrix(0.5187906 0 0 0.5187906 0 0)">
	<g>
        <path d="M0 0L192.756 0L192.756 192.756L0 192.756L0 0z" stroke="none" fill="#FFFFFF" fill-rule="nonzero" />
        <path d="M123.842 62.568C 116.043 62.568 104.44 68.175 104.44 83.618C 104.44 98.737 115.76601 104.85899 123.389 105.284996L123.389 105.284996L146.041 105.299995C 146.975 105.38 148.246 105.782 148.246 109.45799C 148.246 112.412994 147.434 113.75699 145.547 113.94999C 145.547 113.94999 83.447 113.93499 75.919 113.93499C 74.237 111.51499 72.826 109.48999 69.909 105.29899L69.909 105.29899L82.77 105.29899C 90.445 105.29899 101.86 99.52499 101.86 83.61699C 101.86 75.12199 98.53 70.19999 95.743004 67.56199C 90.268005 62.398987 83.588005 62.507988 82.3 62.58199L82.3 62.58199L47.533005 62.56699C 41.431564 62.561386 36.01435 66.46929 34.095005 72.26099L34.095005 72.26099L14.889006 130.19199L32.019005 130.19199L49.05 78.827L82.770004 78.827C 83.899 78.836006 85.604004 78.866005 85.604004 83.618004C 85.604004 88.281006 83.841 88.949005 82.517006 89.046005L82.517006 89.046005L59.458008 89.04001C 55.04701 89.04001 51.32501 91.13701 49.49701 94.64401C 47.66201 98.152016 48.07301 102.40701 50.597008 106.02001L50.597008 106.02001L67.42801 130.19202L146.04102 130.19202C 153.60901 129.96301 164.50002 124.25602 164.50002 109.458015C 164.50002 94.47701 153.46301 89.040016 146.04102 89.040016L146.04102 89.040016L123.84202 89.040016C 120.696014 88.641014 120.696014 84.99101 120.696014 83.61802C 120.696014 81.22702 121.10001 78.99302 124.042015 78.82502L124.042015 78.82502L172.48102 78.82702C 174.29202 73.34902 176.10402 67.90102 177.86801 62.567017L177.86801 62.567017L123.84201 62.567017L123.84201 62.568016L123.842 62.568z" stroke="none" fill="#000000" fill-rule="nonzero" />
        <path d="M123.842 69.493C 123.717 69.493 111.362 69.654 111.362 83.618C 111.362 97.516 123.647 98.366 123.778 98.37299L123.778 98.37299L146.04199 98.37599C 146.411 98.37799 155.16699 98.565994 155.16699 109.45799C 155.16699 120.38799 146.37599 120.84599 145.999 120.85999L145.999 120.85999L72.30299 120.856995L58.253994 100.683C 57.895992 100.161995 57.694992 99.668 57.694992 99.298C 57.69056 99.18053 57.717117 99.06396 57.77199 98.96C 57.95999 98.598 58.60699 98.375 59.45999 98.375L59.45999 98.375L82.76999 98.375C 82.89399 98.375 94.93699 98.204 94.93699 83.617C 94.93699 78.78 93.60799 75.072 90.984985 72.599C 87.45099 69.262 82.89298 69.482 82.69898 69.493996L82.69898 69.493996L47.531982 69.492C 44.361984 69.492 41.668983 71.438995 40.668983 74.447L40.668983 74.447L22.185984 130.192L24.720984 130.192L42.95098 75.205C 43.62698 73.167 45.38498 71.903 47.531982 71.903L47.531982 71.903L82.77 71.903C 82.870995 71.897 86.592995 71.744 89.356995 74.373C 91.461 76.372 92.52599 79.483 92.52599 83.618004C 92.52599 95.755005 83.163994 95.961006 82.76299 95.964005L82.76299 95.964005L59.458 95.964005C 56.982 95.964005 56 97.144005 55.636 97.84601C 55.265003 98.54901 54.86 100.032005 56.277 102.060005L56.277 102.060005L71.044 123.269005L146.04199 123.269005C 146.19398 123.26301 157.579 122.76 157.579 109.45801C 157.579 96.12001 146.159 95.964005 146.04199 95.964005L146.04199 95.964005L123.842995 95.964005C 123.50099 95.941 113.774994 95.206 113.774994 83.618004C 113.774994 72.097 123.437 71.903 123.84699 71.903L123.84699 71.903L174.775 71.903C 175.04599 71.097 175.31 70.295 175.57399 69.492L175.57399 69.492L123.841995 69.492L123.841995 69.493L123.842 69.493z" stroke="none" fill="#FFFFFF" fill-rule="nonzero" />
	</g>
</g>
</svg>